<?xml version="1.0" encoding="iso-8859-1"?>
<!-- Uploaded to: SVG Repo, www.svgrepo.com, Generator: SVG Repo Mixer Tools -->
<svg version="1.1" id="Layer_1" xmlns="http://www.w3.org/2000/svg" xmlns:xlink="http://www.w3.org/1999/xlink" 
	 viewBox="0 0 512.001 512.001" xml:space="preserve">
<g>
	<polygon style="fill:#E6E9ED;" points="329.293,223.625 309.012,230.188 249.729,47.385 270.025,40.807 	"/>
	<polygon style="fill:#E6E9ED;" points="331.418,257.829 346.512,242.751 426.968,323.19 411.873,338.284 	"/>
	<polygon style="fill:#E6E9ED;" points="210.743,378.505 225.822,363.442 306.277,443.882 291.198,458.976 	"/>
	<polygon style="fill:#E6E9ED;" points="411.982,358.926 427.062,374.005 346.605,454.476 331.527,439.382 	"/>
	<polygon style="fill:#E6E9ED;" points="288.995,240.548 304.09,255.626 223.634,336.097 208.54,321.003 	"/>
	<rect x="110.63" y="31.994" style="fill:#E6E9ED;" width="114.46" height="21.344"/>
</g>
<g>
	<path style="fill:#FFCE54;" d="M407.17,378.833c-16.672-16.672-16.672-43.674,0-60.346c16.657-16.672,43.674-16.672,60.33,0
		c16.673,16.672,16.673,43.674,0,60.346C450.844,395.505,423.827,395.505,407.17,378.833z"/>
	<path style="fill:#FFCE54;" d="M165.804,378.833c-16.673-16.672-16.673-43.674,0-60.346c16.657-16.672,43.673-16.672,60.346,0
		c16.657,16.672,16.657,43.674,0,60.346C209.477,395.505,182.461,395.505,165.804,378.833z"/>
	<path style="fill:#FFCE54;" d="M286.479,499.509c-16.657-16.657-16.657-43.674,0-60.346c16.673-16.657,43.688-16.657,60.345,0
		c16.657,16.672,16.657,43.688,0,60.346C330.168,516.165,303.152,516.165,286.479,499.509z"/>
	<path style="fill:#FFCE54;" d="M290.136,72.839c-16.657,16.657-43.672,16.657-60.33,0c-16.673-16.657-16.673-43.689,0-60.346
		c16.657-16.657,43.672-16.657,60.33,0C306.809,29.15,306.809,56.183,290.136,72.839z"/>
	<path style="fill:#FFCE54;" d="M286.479,258.157c-16.657-16.672-16.657-43.689,0-60.346c16.673-16.657,43.673-16.657,60.345,0
		c16.657,16.657,16.657,43.674,0,60.346C330.168,274.813,303.152,274.813,286.479,258.157z"/>
	<path style="fill:#FFCE54;" d="M44.488,12.494c16.657-16.657,43.673-16.657,60.346,0c16.657,16.657,16.657,43.689,0,60.346
		c-16.673,16.657-43.688,16.657-60.346,0C27.831,56.183,27.831,29.15,44.488,12.494z"/>
</g>
</svg>