<svg version="1.1" id="Layer_1" xmlns="http://www.w3.org/2000/svg" xmlns:xlink="http://www.w3.org/1999/xlink" x="0px" y="0px"
	 width="100%" viewBox="0 0 241 212" enable-background="new 0 0 241 212" xml:space="preserve">
<path fill="#000000" opacity="1.000000" stroke="none" 
	d="
M1.000001,140.000000 
	C1.000000,93.689178 1.000000,47.378353 1.000000,1.033766 
	C81.271782,1.033766 161.543579,1.033766 241.907684,1.033766 
	C241.907684,71.570686 241.907684,142.141541 241.907684,212.856201 
	C161.666840,212.856201 81.333458,212.856201 1.000000,212.856201 
	C1.000000,190.582413 1.000000,168.259857 1.420947,145.468658 
	C5.472650,144.520935 9.103406,144.041870 12.734161,143.562820 
	C12.659764,143.227112 12.585366,142.891403 12.510969,142.555710 
	C8.673980,141.703796 4.836991,140.851898 1.000001,140.000000 
M112.885605,91.385391 
	C112.246185,89.768166 111.848785,87.990402 110.908424,86.572807 
	C109.624069,84.636665 108.210541,82.081841 106.315651,81.478821 
	C104.810684,80.999878 102.412140,82.909691 100.578552,84.033401 
	C99.403641,84.753456 98.705170,86.321785 97.500275,86.910576 
	C89.784485,90.681046 82.073769,94.489487 74.168938,97.830063 
	C71.527367,98.946396 68.186890,98.323395 65.416115,99.246506 
	C63.190926,99.987869 60.481922,101.476669 59.632065,103.371399 
	C59.067696,104.629631 60.961449,108.162979 62.563858,108.886650 
	C64.127312,109.592735 68.266228,108.477623 68.591179,107.372810 
	C70.000961,102.579651 74.024170,101.517204 77.603058,99.759529 
	C82.484932,97.361954 87.439507,95.109581 92.394409,92.864456 
	C96.132843,91.170532 99.708183,87.124641 104.040352,91.882011 
	C104.280273,92.145485 105.036453,92.096878 105.496155,91.977386 
	C109.499245,90.936943 111.931450,93.403313 114.386978,95.871330 
	C118.381294,99.885971 122.587234,103.712250 126.324989,107.952042 
	C128.735596,110.686440 130.311371,114.140945 132.569717,117.031761 
	C133.791138,118.595222 135.608459,120.581841 137.251587,120.673073 
	C138.842102,120.761375 140.656570,118.784897 142.177719,117.486870 
	C143.259186,116.564034 143.782028,114.777885 144.957321,114.207100 
	C153.258759,110.175484 161.633820,106.289864 170.062653,102.530907 
	C171.769089,101.769890 173.978638,101.078773 175.653656,101.515625 
	C179.718307,102.575699 182.176239,100.537231 182.570984,97.337830 
	C182.795258,95.520218 180.568100,92.396866 178.682983,91.542213 
	C175.310776,90.013390 173.371475,92.780861 172.110016,95.725006 
	C171.641342,96.818878 171.290451,98.604111 170.519501,98.831390 
	C159.073868,102.205727 150.161118,113.230103 136.591599,110.153175 
	C134.886414,109.766525 132.704437,109.913231 131.557556,108.895393 
	C125.363113,103.397995 119.425339,97.611389 112.885605,91.385391 
z"/>
<path fill="#FFFFFF" opacity="1.000000" stroke="none" 
	d="
M1.000001,140.416656 
	C4.836991,140.851898 8.673980,141.703796 12.510969,142.555710 
	C12.585366,142.891403 12.659764,143.227112 12.734161,143.562820 
	C9.103406,144.041870 5.472650,144.520935 1.420947,145.000000 
	C1.000000,143.611115 1.000000,142.222214 1.000001,140.416656 
z"/>
<path fill="#69623D" opacity="1.000000" stroke="none" 
	d="
M113.142334,91.654953 
	C119.425339,97.611389 125.363113,103.397995 131.557556,108.895393 
	C132.704437,109.913231 134.886414,109.766525 136.591599,110.153175 
	C150.161118,113.230103 159.073868,102.205727 170.519501,98.831390 
	C171.290451,98.604111 171.641342,96.818878 172.110016,95.725006 
	C173.371475,92.780861 175.310776,90.013390 178.682983,91.542213 
	C180.568100,92.396866 182.795258,95.520218 182.570984,97.337830 
	C182.176239,100.537231 179.718307,102.575699 175.653656,101.515625 
	C173.978638,101.078773 171.769089,101.769890 170.062653,102.530907 
	C161.633820,106.289864 153.258759,110.175484 144.957321,114.207100 
	C143.782028,114.777885 143.259186,116.564034 142.177719,117.486870 
	C140.656570,118.784897 138.842102,120.761375 137.251587,120.673073 
	C135.608459,120.581841 133.791138,118.595222 132.569717,117.031761 
	C130.311371,114.140945 128.735596,110.686440 126.324989,107.952042 
	C122.587234,103.712250 118.381294,99.885971 114.386978,95.871330 
	C111.931450,93.403313 109.499245,90.936943 105.496155,91.977386 
	C105.036453,92.096878 104.280273,92.145485 104.040352,91.882011 
	C99.708183,87.124641 96.132843,91.170532 92.394409,92.864456 
	C87.439507,95.109581 82.484932,97.361954 77.603058,99.759529 
	C74.024170,101.517204 70.000961,102.579651 68.591179,107.372810 
	C68.266228,108.477623 64.127312,109.592735 62.563858,108.886650 
	C60.961449,108.162979 59.067696,104.629631 59.632065,103.371399 
	C60.481922,101.476669 63.190926,99.987869 65.416115,99.246506 
	C68.186890,98.323395 71.527367,98.946396 74.168938,97.830063 
	C82.073769,94.489487 89.784485,90.681046 97.500275,86.910576 
	C98.705170,86.321785 99.403641,84.753456 100.578552,84.033401 
	C102.412140,82.909691 104.810684,80.999878 106.315651,81.478821 
	C108.210541,82.081841 109.624069,84.636665 110.908424,86.572807 
	C111.848785,87.990402 112.246185,89.768166 113.142334,91.654953 
z"/>
</svg>